<svg width="52" height="52" viewBox="0 0 52 52" fill="none" xmlns="http://www.w3.org/2000/svg">
<path d="M2 48.7374C2 37.5748 12.1799 28.5267 24.7371 28.5267M36.1056 10.8422C36.1056 15.7256 32.1468 19.6844 27.2634 19.6844C22.38 19.6844 18.4212 15.7256 18.4212 10.8422C18.4212 5.95879 22.38 2 27.2634 2C32.1468 2 36.1056 5.95879 36.1056 10.8422ZM37.1788 32.3161C34.4933 32.3161 32.3156 34.8539 32.3156 37.9827C32.3156 43.6506 38.063 48.8018 41.1578 50.0005C44.2526 48.8018 50 43.6506 50 37.9827C50 34.8551 47.8223 32.3161 45.1368 32.3161C43.4921 32.3161 42.0382 33.2673 41.1578 34.7237C40.2774 33.2673 38.8235 32.3161 37.1788 32.3161Z" stroke="#2184B9" stroke-width="4" stroke-linecap="round" stroke-linejoin="round"/>
</svg>
